<svg width="20" height="20" viewBox="0 0 20 20" fill="none" xmlns="http://www.w3.org/2000/svg">
<path d="M16.4108 17.3042L13.7988 14.6923C12.6719 15.2054 11.4459 15.4639 10.2078 15.4496C8.93126 15.4654 7.66796 15.1899 6.51397 14.644C5.61946 14.2076 4.81623 13.6048 4.14717 12.868C3.43697 12.1067 2.87878 11.2167 2.50263 10.2459L2.4248 10.0015L2.50653 9.75555C3.06909 8.3206 4.01584 7.06822 5.24301 6.13569L3.2031 4.09578L4.30283 2.99683L17.5097 16.2037L16.4123 17.3042H16.4108ZM6.3443 7.23776C5.34958 7.93505 4.56407 8.89063 4.07246 10.0015C5.1266 12.4336 7.55834 13.976 10.2078 13.893C11.0248 13.8997 11.8372 13.7681 12.6104 13.5038L11.2094 12.1029C10.8976 12.2557 10.555 12.3356 10.2078 12.3364C8.9216 12.3283 7.88095 11.2877 7.87288 10.0015C7.87325 9.65341 7.95311 9.31001 8.10636 8.99749L6.3443 7.23776ZM16.3189 12.8111L15.2356 11.7285C15.6913 11.2132 16.0649 10.6307 16.3431 10.0015C15.2903 7.56821 12.8577 6.02524 10.2078 6.11001C10.0155 6.11001 9.82251 6.11701 9.63572 6.13025L8.26202 4.755C8.90149 4.6182 9.55383 4.55062 10.2078 4.55342C11.4843 4.53758 12.7476 4.81307 13.9016 5.35895C14.7961 5.79537 15.5993 6.39813 16.2684 7.13503C16.9782 7.89539 17.5364 8.78429 17.9129 9.75399L17.9907 10.0015L17.909 10.2474C17.5446 11.1955 17.0055 12.0667 16.3197 12.8158L16.3189 12.8111Z" fill="#2E3A59"/>
</svg>
