<svg width="20" height="20" viewBox="0 0 20 20" fill="none" xmlns="http://www.w3.org/2000/svg">
<path d="M9.79272 15.4481C8.51622 15.464 7.25291 15.1885 6.09893 14.6425C5.20443 14.2061 4.4012 13.6033 3.73213 12.8665C3.02344 12.1046 2.46543 11.2154 2.0876 10.2459L2.00977 9.99999L2.09149 9.75405C2.46959 8.78541 3.0264 7.89647 3.73291 7.13353C4.40173 6.39672 5.2047 5.79397 6.09893 5.35745C7.25292 4.81155 8.51622 4.53605 9.79272 4.55192C11.0692 4.53608 12.3325 4.81157 13.4865 5.35745C14.381 5.79387 15.1843 6.39663 15.8533 7.13353C16.5633 7.89435 17.1215 8.7838 17.4979 9.75405L17.5757 9.99999L17.494 10.2459C16.273 13.4243 13.1971 15.502 9.79272 15.4481ZM9.79272 6.10851C7.1433 6.02549 4.71156 7.56789 3.65742 9.99999C4.71138 12.4322 7.14324 13.9747 9.79272 13.8915C12.4421 13.9743 14.8737 12.4319 15.928 9.99999C14.8753 7.56671 12.4426 6.02374 9.79272 6.10851ZM9.79272 12.3349C8.6699 12.3423 7.69862 11.5545 7.47415 10.4543C7.24969 9.35415 7.83474 8.24884 8.87074 7.81583C9.90674 7.38281 11.1043 7.74304 11.7295 8.67572C12.3548 9.60841 12.233 10.8531 11.4388 11.6469C11.004 12.0868 10.4113 12.3345 9.79272 12.3349Z" fill="#2E3A59"/>
</svg>
