<svg width="187" height="124" viewBox="0 0 187 124" fill="none" xmlns="http://www.w3.org/2000/svg">
<path d="M35.4636 122.314H25.2224C24.6766 120.983 24.132 119.654 23.5874 118.326C20.753 111.412 17.9175 104.498 15.0912 97.5808C15.0373 97.4492 15.035 97.2627 15.0832 97.1299C16.5714 93.0739 18.07 89.0202 19.5663 84.9676C19.5973 84.8829 19.6351 84.7994 19.7005 84.6414C24.9678 97.2318 30.2088 109.755 35.4636 122.313V122.314Z" fill="black"/>
<path d="M3.93759 122.314H4.99818C10.0672 110.199 15.1236 98.1153 20.2041 85.9724C20.0814 85.6371 19.9576 85.3029 19.8338 84.9676C19.8028 84.8829 19.765 84.8005 19.6996 84.6414C14.4322 97.2318 9.19236 109.756 3.93759 122.314Z" fill="black"/>
<g clip-path="url(#clip0_392_188)">
<path d="M4.96102 122.314H6.02161C11.0906 110.199 16.147 98.1153 21.2275 85.9724C21.1049 85.6371 20.981 85.3029 20.8572 84.9676C20.8262 84.8829 20.7884 84.8005 20.723 84.6414C15.4557 97.2318 10.2158 109.756 4.96102 122.314Z" fill="black"/>
</g>
<path d="M52.8996 122.353H44.0547V84.6826H52.8996V122.353Z" fill="black"/>
<path d="M59.668 103.498C60.9031 103.705 62.15 103.856 63.3698 104.131C65.5518 104.625 67.5673 105.494 69.338 106.91C70.6633 107.97 71.4484 109.339 71.8937 110.936C72.3331 112.518 72.4327 114.143 72.4843 115.772C72.53 117.235 72.5253 118.699 72.6156 120.159C72.6577 120.84 72.8323 121.522 73.0175 122.183C73.1569 122.682 73.5272 123.026 74.0499 123.233C73.8706 123.255 73.6925 123.286 73.5132 123.296C71.7261 123.404 69.9719 123.302 68.2693 122.658C66.1998 121.874 65.0362 120.357 64.5768 118.248C64.2956 116.957 64.21 115.643 64.1655 114.326C64.1268 113.186 64.1116 112.043 64.0448 110.904C63.9862 109.881 63.8585 108.859 63.4589 107.903C63.0335 106.885 62.2519 106.141 61.4434 105.428C60.4801 104.58 59.388 103.952 58.1306 103.566C58.1716 103.53 58.1927 103.495 58.2208 103.488C59.5134 103.15 60.4286 102.318 61.1363 101.233C62.0187 99.881 62.4242 98.3588 62.6234 96.778C62.8367 95.0882 62.873 93.3937 62.6433 91.7004C62.4546 90.3153 62.0715 88.9877 61.3238 87.7947C60.2774 86.1249 58.7939 85.0667 56.8369 84.6765C57.6736 84.7585 58.5138 84.8124 59.3458 84.9296C61.6203 85.2484 63.8245 85.812 65.8506 86.9335C67.5134 87.8533 68.8598 89.0896 69.6497 90.8567C70.2438 92.1879 70.4125 93.5906 70.2942 95.0319C70.2168 95.9682 70.0516 96.8858 69.6989 97.7646C68.9384 99.6618 67.606 101.035 65.8108 101.968C64.0272 102.895 62.1066 103.339 60.1122 103.488C59.9598 103.5 59.8075 103.522 59.6552 103.539C59.6598 103.525 59.6645 103.512 59.6692 103.498H59.668Z" fill="black"/>
<path d="M93.5467 84.9859C93.5299 85.0308 93.5276 85.0926 93.4962 85.1184C92.7743 85.7191 92.3117 86.5095 91.912 87.3358C90.9903 89.2366 90.5041 91.2687 90.165 93.339C89.3915 98.0646 89.3253 102.825 89.506 107.594C89.6059 110.247 89.8585 112.888 90.3907 115.494C90.7825 117.413 91.3046 119.289 92.2915 121.004C92.6137 121.564 92.964 122.104 93.4715 122.523C93.5108 122.556 93.5209 122.623 93.5445 122.675L93.5467 122.677C92.9505 122.411 92.3465 122.159 91.7582 121.878C88.847 120.482 86.2916 118.607 84.1775 116.162C82.0679 113.722 80.6645 110.915 80.0852 107.74C79.4318 104.159 79.6754 100.633 80.9924 97.2113C81.8659 94.9423 83.148 92.9292 84.7861 91.1385C87.2022 88.4978 90.0921 86.5263 93.357 85.0859C93.4243 85.0567 93.4872 85.0162 93.5523 84.9814L93.5501 84.9871L93.5467 84.9859Z" fill="black"/>
<path d="M103.088 84.9893C104.99 85.7943 106.771 86.8137 108.434 88.0375C111.022 89.9417 113.16 92.25 114.702 95.0815C115.725 96.9598 116.392 98.9661 116.704 101.085C117.199 104.442 116.907 107.722 115.68 110.896C114.824 113.11 113.549 115.069 111.923 116.795C109.513 119.353 106.641 121.235 103.389 122.551C103.283 122.594 103.16 122.6 103.046 122.623L103.039 122.631C103.368 122.291 103.743 121.985 104.017 121.606C104.895 120.384 105.4 118.989 105.82 117.557C106.405 115.561 106.716 113.514 106.943 111.452C107.333 107.886 107.375 104.309 107.262 100.731C107.161 97.5538 106.883 94.391 106.145 91.2878C105.755 89.6498 105.262 88.0431 104.381 86.5858C104.046 86.0323 103.671 85.5091 103.156 85.1038C103.127 85.0803 103.114 85.0342 103.094 84.9994L103.088 84.9927V84.9893Z" fill="black"/>
<path d="M93.5495 84.9814C93.5555 84.9886 93.5602 84.9982 93.5674 85.0006C93.5722 85.0018 93.5806 84.9934 93.5865 84.9898C93.5734 84.9898 93.5602 84.9886 93.5459 84.9874L93.5483 84.9814H93.5495Z" fill="black"/>
<path d="M93.542 122.674C93.5602 122.671 93.5784 122.666 93.5978 122.662C93.5796 122.667 93.5626 122.672 93.5444 122.678L93.542 122.676V122.674Z" fill="black"/>
<path d="M103.094 84.9963L103.073 84.9998C103.073 84.9998 103.088 84.9905 103.088 84.9893L103.094 84.9952V84.9963Z" fill="black"/>
<path d="M103.047 122.621C103.047 122.628 103.047 122.636 103.047 122.643C103.045 122.638 103.042 122.634 103.04 122.629L103.047 122.621Z" fill="black"/>
<path d="M153.309 122.314H143.068C142.522 120.983 141.978 119.654 141.433 118.326C138.599 111.412 135.763 104.498 132.937 97.5808C132.883 97.4492 132.881 97.2627 132.929 97.1299C134.417 93.0739 135.916 89.0202 137.412 84.9676C137.443 84.8829 137.481 84.7994 137.546 84.6414C142.814 97.2318 148.055 109.755 153.309 122.313V122.314Z" fill="black"/>
<path d="M121.783 122.314H122.844C127.913 110.199 132.969 98.1153 138.05 85.9724C137.927 85.6371 137.803 85.3029 137.679 84.9676C137.649 84.8829 137.611 84.8005 137.545 84.6414C132.278 97.2318 127.038 109.756 121.783 122.314Z" fill="black"/>
<g clip-path="url(#clip1_392_188)">
<path d="M122.807 122.314H123.867C128.936 110.199 133.993 98.1153 139.073 85.9724C138.951 85.6371 138.827 85.3029 138.703 84.9676C138.672 84.8829 138.634 84.8005 138.569 84.6414C133.301 97.2318 128.061 109.756 122.807 122.314Z" fill="black"/>
</g>
<path d="M159.953 84.7529C160.229 84.7529 160.473 84.7529 160.716 84.7529C163.009 84.7529 165.303 84.7564 167.597 84.747C167.819 84.747 167.948 84.822 168.075 84.9966C173.851 92.9744 179.631 100.95 185.406 108.928C185.496 109.053 185.574 109.223 185.575 109.372C185.584 113.947 185.582 118.521 185.582 123.096V123.334C185.467 123.191 185.398 123.109 185.333 123.025C180.315 116.439 175.294 109.855 170.275 103.268C166.882 98.8148 163.489 94.363 160.101 89.9066C160.018 89.7976 159.94 89.6499 159.94 89.5199C159.929 87.9977 159.933 86.4766 159.934 84.9544C159.934 84.8982 159.943 84.8419 159.953 84.7505V84.7529Z" fill="black"/>
<rect x="159.933" y="88.0419" width="2.15232" height="34.4431" fill="black"/>
<rect x="183.431" y="84.7471" width="2.15232" height="34.4431" fill="black"/>
<path d="M62.2309 65.7654H65.8545C65.7626 67.7348 65.3622 69.435 64.6532 70.8661C63.9574 72.284 62.9399 73.3738 61.6007 74.1352C60.2746 74.8967 58.6138 75.2775 56.6182 75.2775C55.1871 75.2775 53.8939 74.9952 52.7385 74.4307C51.5831 73.8661 50.5919 73.0587 49.7648 72.0083C48.9507 70.9449 48.3271 69.6713 47.8939 68.1877C47.4606 66.7041 47.244 65.0367 47.244 63.1855V57.8879C47.244 56.0498 47.4606 54.389 47.8939 52.9054C48.3402 51.4218 48.977 50.1548 49.8041 49.1045C50.6444 48.0411 51.6619 47.227 52.8567 46.6625C54.0646 46.0979 55.43 45.8157 56.953 45.8157C58.8173 45.8157 60.3928 46.1898 61.6795 46.9382C62.9792 47.6734 63.9771 48.7566 64.6729 50.1877C65.3819 51.6056 65.7758 53.3452 65.8545 55.4065H62.2309C62.139 53.8967 61.9027 52.6691 61.5219 51.7238C61.1412 50.7654 60.5766 50.0629 59.8283 49.6166C59.093 49.157 58.1346 48.9273 56.953 48.9273C55.9026 48.9273 54.9902 49.1373 54.2155 49.5575C53.454 49.9776 52.8238 50.5815 52.3249 51.3693C51.8392 52.1439 51.4715 53.0826 51.2221 54.1855C50.9858 55.2752 50.8676 56.4962 50.8676 57.8485V63.1855C50.8676 64.4459 50.9661 65.621 51.163 66.7107C51.3731 67.8004 51.7013 68.7589 52.1477 69.586C52.6072 70.4 53.2046 71.0368 53.9398 71.4963C54.6751 71.9558 55.5678 72.1856 56.6182 72.1856C57.9442 72.1856 58.9945 71.9689 59.7692 71.5357C60.5438 71.1024 61.1149 70.4131 61.4825 69.4678C61.8633 68.5225 62.1127 67.2884 62.2309 65.7654ZM89.6603 71.7917V74.8836H77.7653V71.7917H89.6603ZM78.4152 46.2095V74.8836H74.7915V46.2095H78.4152ZM110.433 46.2095H114.057V66.3956C114.057 68.5488 113.643 70.2753 112.816 71.5751C111.989 72.8748 110.899 73.8201 109.547 74.411C108.208 74.9886 106.764 75.2775 105.214 75.2775C103.56 75.2775 102.07 74.9886 100.744 74.411C99.4179 73.8201 98.361 72.8748 97.5732 71.5751C96.7986 70.2753 96.4113 68.5488 96.4113 66.3956V46.2095H100.015V66.3956C100.015 67.8923 100.225 69.0608 100.645 69.9011C101.079 70.7414 101.683 71.3322 102.457 71.6735C103.245 72.0149 104.164 72.1856 105.214 72.1856C106.278 72.1856 107.197 72.0149 107.972 71.6735C108.759 71.3322 109.363 70.7414 109.783 69.9011C110.217 69.0608 110.433 67.8923 110.433 66.3956V46.2095ZM132.309 61.4722H126.48L126.44 58.4196H131.856C132.67 58.4196 133.392 58.2358 134.022 57.8682C134.653 57.5006 135.145 56.9754 135.499 56.2927C135.867 55.5969 136.051 54.7697 136.051 53.8113C136.051 52.761 135.893 51.9076 135.578 51.2511C135.276 50.5815 134.81 50.0958 134.18 49.7938C133.563 49.4787 132.775 49.3211 131.817 49.3211H127.248V74.8836H123.624V46.2095H131.817C133.051 46.2095 134.154 46.3605 135.125 46.6625C136.097 46.9513 136.917 47.4109 137.587 48.0411C138.27 48.6581 138.788 49.4459 139.143 50.4043C139.497 51.3627 139.675 52.5115 139.675 53.8507C139.675 55.0323 139.405 56.1024 138.867 57.0608C138.342 58.0061 137.607 58.7807 136.661 59.3846C135.716 59.9886 134.626 60.3759 133.392 60.5466L132.309 61.4722ZM132.171 74.8836H124.983L127.09 71.7917H132.171C133.116 71.7917 133.917 71.5816 134.574 71.1615C135.23 70.7414 135.729 70.1505 136.071 69.3891C136.425 68.6144 136.602 67.702 136.602 66.6516C136.602 65.5882 136.458 64.6691 136.169 63.8945C135.88 63.1199 135.421 62.5225 134.79 62.1024C134.16 61.6822 133.333 61.4722 132.309 61.4722H127.642L127.681 58.4196H133.983L134.79 59.5225C135.972 59.6407 136.963 60.0345 137.764 60.7041C138.578 61.3606 139.189 62.2008 139.596 63.2249C140.016 64.249 140.226 65.3781 140.226 66.6122C140.226 68.3978 139.891 69.9077 139.222 71.1418C138.565 72.3628 137.633 73.295 136.425 73.9383C135.217 74.5685 133.799 74.8836 132.171 74.8836Z" fill="black"/>
<g clip-path="url(#clip2_392_188)">
<path d="M108.209 3.24158H79.4117C70.2072 3.24158 62.7168 10.3688 62.7168 19.127C62.7168 27.8853 70.2072 35.0151 79.4117 35.0151H108.206C117.413 35.0151 124.901 27.8879 124.901 19.127C124.901 10.3662 117.416 3.24158 108.209 3.24158ZM115.618 6.3491L101.84 13.9195C101.089 12.8012 100.09 11.8504 98.9148 11.1366L102.925 4.52994H108.211C110.898 4.52994 113.422 5.19215 115.621 6.3491H115.618ZM97.8695 25.5122C97.8289 21.9486 96.8324 18.2561 94.3193 15.5583C94.0621 15.2826 93.5638 15.2826 93.3065 15.5583C90.7935 18.2561 89.7942 21.9486 89.7563 25.5122C87.2352 24.1388 85.651 21.5878 85.651 18.774C85.651 14.4915 89.3122 11.0052 93.8156 11.0052C98.3191 11.0052 101.98 14.489 101.98 18.774C101.98 21.5878 100.396 24.1388 97.875 25.5122H97.8695ZM73.6193 23.3864C74.0228 24.7572 74.5129 26.1615 74.9706 27.1071C74.6375 27.1793 74.2963 27.2695 73.9524 27.3751C73.7736 26.2439 73.6626 24.7855 73.622 23.3889L73.6193 23.3864ZM76.4248 28.1894V29.3154C76.4248 31.1217 77.313 32.7192 78.6724 33.7113C75.3172 33.5592 72.2436 32.374 69.7901 30.4878C72.1515 29.3618 74.5481 28.3259 76.4248 28.1894ZM77.2372 29.3128V28.1894C79.3494 28.3517 81.4698 29.7354 83.7039 31.1964C85.1175 32.1214 86.5582 33.0594 88.0611 33.7267H80.3676C78.5479 33.0954 77.2372 31.3587 77.2372 29.3128ZM93.404 33.7267H92.941C92.941 33.7267 92.941 33.7216 92.9383 33.719C90.8612 29.9673 90.0217 22.4227 93.404 17.5527V33.7267ZM94.6822 33.719C94.6822 33.719 94.6822 33.7242 94.6795 33.7267H94.2164V17.5527C97.5987 22.4227 96.7593 29.9673 94.6822 33.719ZM94.2164 9.72975V4.52994H101.986L98.2108 10.7501C97.0057 10.1498 95.6517 9.78644 94.2164 9.72975ZM93.404 9.72975C91.9688 9.78644 90.6148 10.1498 89.4097 10.7501L85.6347 4.52994H93.404V9.72975ZM84.6978 4.52994L88.7083 11.1366C87.5331 11.8504 86.5338 12.8012 85.7837 13.9195L72.0053 6.3491C74.2042 5.18958 76.7281 4.52994 79.4144 4.52994H84.6978ZM64.0708 19.127C64.0708 13.9478 66.9223 9.39478 71.2064 6.8026L85.3775 14.5869C84.6869 15.8392 84.2943 17.2641 84.2943 18.774C84.2943 22.3093 86.4417 25.4915 89.7915 26.9783C89.9351 29.336 90.4794 31.5649 91.2539 33.3222C88.9277 33.0413 86.6665 31.5674 84.4757 30.1348C82.0331 28.5372 79.5038 26.8855 76.8364 26.8855C76.5006 26.8855 76.1567 26.9139 75.8019 26.9628C75.0274 25.4632 74.0038 22.0877 73.6653 20.1655L73.6816 19.73L78.2933 24.1181C78.3718 24.1929 78.4747 24.2315 78.5804 24.2315C78.6318 24.2315 78.6833 24.2212 78.7347 24.2032C78.8864 24.1439 78.9866 24.0048 78.9866 23.8502C79.0028 22.603 78.7726 20.8818 77.5865 19.7532C77.3563 19.5342 77.1018 19.3512 76.8337 19.194H80.7738C80.9363 19.194 81.0853 19.1013 81.1476 18.957C81.2098 18.8127 81.1773 18.6478 81.0636 18.537C80.3595 17.849 78.8972 16.6972 77.0287 16.6972C76.6468 16.6972 76.284 16.7462 75.9373 16.8286L78.8647 14.0432C78.9811 13.9324 79.0163 13.7675 78.9541 13.6232C78.8918 13.4789 78.7455 13.3835 78.5831 13.3835C77.7409 13.3758 75.6286 13.4918 74.2421 14.811C73.8359 15.1976 73.5272 15.6665 73.3024 16.2128C73.0912 15.6614 72.7798 15.1357 72.3248 14.7028C71.1468 13.5819 69.3244 13.3681 68.0083 13.381C67.8458 13.381 67.6995 13.4789 67.6373 13.6206C67.575 13.7649 67.6102 13.9298 67.7266 14.0406L70.654 16.826C70.3101 16.7436 69.9445 16.6946 69.5627 16.6946C67.6941 16.6946 66.2345 17.849 65.5277 18.5344C65.414 18.6452 65.3815 18.8101 65.4438 18.9544C65.5061 19.0987 65.655 19.1915 65.8175 19.1915H69.8037C69.5275 19.3512 69.2621 19.5419 69.0238 19.7686C67.8214 20.9127 67.5885 22.6185 67.6048 23.8476C67.6048 24.0022 67.7077 24.1413 67.8566 24.2006C67.9054 24.2186 67.9595 24.2289 68.0083 24.2289C68.1139 24.2289 68.2168 24.1903 68.2953 24.1156L72.8583 19.7738L72.8421 20.1655C72.704 22.0928 72.8069 25.4812 73.1643 27.6276C71.7399 28.1249 70.2315 28.8232 68.6934 29.5628C65.8391 26.9113 64.0627 23.2111 64.0627 19.1245L64.0708 19.127ZM74.3098 19.2378C75.263 19.3358 76.2921 19.6166 77.0097 20.2995C77.7246 20.9797 78.0225 21.9614 78.1254 22.8684L74.3098 19.2378ZM74.3558 18.421C75.0329 17.934 75.959 17.4702 77.026 17.4702C78.0929 17.4702 79.0191 17.934 79.6961 18.421H74.3531H74.3558ZM73.733 17.8335C73.8494 16.7513 74.2096 15.9371 74.8162 15.3573C75.4391 14.7647 76.4139 14.3601 77.5351 14.2158L73.733 17.8335ZM72.8556 17.831L69.0373 14.1978C69.9987 14.2931 71.0385 14.5714 71.7507 15.2491C72.4629 15.9268 72.7554 16.9162 72.8556 17.831ZM72.2328 18.421H66.8926C67.5696 17.934 68.4957 17.4702 69.5627 17.4702C70.6296 17.4702 71.5558 17.934 72.2328 18.421ZM72.2761 19.2404L68.4686 22.8633C68.5742 21.9717 68.8775 21.0055 69.6006 20.3149C70.3236 19.6269 71.3391 19.3383 72.2761 19.2378V19.2404ZM99.4971 33.7267C101 33.0594 102.441 32.1189 103.854 31.1964C106.088 29.7354 108.209 28.3517 110.321 28.1894V29.2226C110.321 30.7815 111.041 32.2245 112.279 33.2037C110.982 33.5438 109.617 33.7293 108.209 33.7293H99.4971V33.7267ZM113.665 27.3932C113.319 27.2875 112.978 27.1948 112.642 27.12C113.102 26.1769 113.595 24.7623 114.001 23.3864C113.958 24.7907 113.847 26.2594 113.665 27.3932ZM117.806 30.5058C116.452 31.5417 114.911 32.3636 113.238 32.9176C111.919 32.0982 111.131 30.7249 111.131 29.2226V28.1894C113.005 28.3234 115.347 29.3334 117.806 30.5058ZM118.897 29.5859C117.365 28.8464 115.864 28.1533 114.445 27.6534C114.805 25.507 114.911 22.0954 114.773 20.1758L114.757 19.7764L119.32 24.1181C119.398 24.1929 119.501 24.2315 119.607 24.2315C119.658 24.2315 119.71 24.2212 119.761 24.2032C119.913 24.1439 120.013 24.0048 120.013 23.8502C120.029 22.6211 119.796 20.9153 118.594 19.7712C118.356 19.5445 118.093 19.3538 117.814 19.194H121.8C121.963 19.194 122.112 19.1013 122.174 18.957C122.236 18.8127 122.204 18.6478 122.09 18.537C121.386 17.849 119.924 16.6972 118.055 16.6972C117.673 16.6972 117.31 16.7462 116.964 16.8286L119.891 14.0432C120.008 13.9324 120.043 13.7675 119.98 13.6232C119.918 13.4789 119.772 13.3835 119.609 13.3835C118.285 13.3681 116.468 13.5845 115.293 14.7054C114.838 15.1383 114.527 15.6614 114.315 16.2154C114.091 15.6691 113.782 15.2001 113.376 14.8136C111.989 13.4943 109.882 13.3784 109.035 13.3861C108.872 13.3861 108.726 13.484 108.664 13.6258C108.601 13.7675 108.637 13.935 108.753 14.0458L111.68 16.8312C111.337 16.7487 110.971 16.6998 110.589 16.6998C108.721 16.6998 107.261 17.8541 106.554 18.5396C106.44 18.6504 106.408 18.8153 106.47 18.9596C106.532 19.1039 106.681 19.1966 106.844 19.1966H110.784C110.516 19.3512 110.261 19.5367 110.031 19.7558C108.845 20.8844 108.615 22.6056 108.631 23.8527C108.631 24.0074 108.734 24.1465 108.883 24.2058C108.932 24.2238 108.983 24.2341 109.037 24.2341C109.143 24.2341 109.246 24.1954 109.324 24.1207L113.936 19.7326L113.952 20.168C113.614 22.0928 112.588 25.4812 111.81 26.9757C111.437 26.9216 111.071 26.8907 110.719 26.8907C108.049 26.8907 105.522 28.5424 103.08 30.1399C100.908 31.5597 98.6684 33.0207 96.3666 33.3222C97.1384 31.5674 97.68 29.3412 97.8235 26.986C101.171 25.4993 103.321 22.3196 103.321 18.7818C103.321 17.2718 102.928 15.8469 102.238 14.5946L116.409 6.81033C120.693 9.40251 123.544 13.9556 123.544 19.1348C123.544 23.2318 121.76 26.9371 118.892 29.5911L118.897 29.5859ZM115.344 19.2404C116.281 19.3409 117.297 19.6295 118.02 20.3175C118.743 21.0055 119.046 21.9743 119.152 22.8659L115.344 19.243V19.2404ZM115.388 18.421C116.065 17.934 116.991 17.4702 118.058 17.4702C119.125 17.4702 120.051 17.934 120.728 18.421H115.385H115.388ZM114.765 17.831C114.865 16.9162 115.158 15.9268 115.87 15.2491C116.582 14.5714 117.619 14.2931 118.583 14.1978L114.765 17.831ZM113.89 17.8335L110.088 14.2158C111.207 14.3627 112.181 14.7647 112.807 15.3573C113.416 15.9371 113.774 16.7513 113.89 17.8335ZM113.265 18.421H107.922C108.599 17.934 109.525 17.4702 110.592 17.4702C111.659 17.4702 112.585 17.934 113.262 18.421H113.265ZM113.311 19.2378L109.495 22.8684C109.598 21.9614 109.893 20.9823 110.611 20.2995C111.326 19.6192 112.357 19.3358 113.311 19.2378ZM108.832 38.4499C108.832 38.7333 108.588 38.9652 108.29 38.9652C107.935 38.9652 107.784 39.0605 107.553 39.2048C107.261 39.3878 106.901 39.6145 106.221 39.6145C105.541 39.6145 105.178 39.3878 104.889 39.2048C104.659 39.0605 104.507 38.9652 104.152 38.9652C103.797 38.9652 103.646 39.0605 103.416 39.2048C103.126 39.3878 102.763 39.6145 102.083 39.6145C101.404 39.6145 101.041 39.3878 100.751 39.2048C100.521 39.0605 100.369 38.9652 100.017 38.9652C99.665 38.9652 99.5106 39.0605 99.2804 39.2048C98.9907 39.3878 98.6278 39.6145 97.9481 39.6145C97.2684 39.6145 96.9055 39.3878 96.6157 39.2048C96.3856 39.0605 96.2339 38.9652 95.8792 38.9652C95.5244 38.9652 95.3728 39.0605 95.1426 39.2048C94.8528 39.3878 94.4899 39.6145 93.8102 39.6145C93.1305 39.6145 92.7676 39.3878 92.4779 39.2048C92.2477 39.0605 92.0961 38.9652 91.7413 38.9652C91.3866 38.9652 91.2349 39.0605 91.0074 39.2048C90.7177 39.3878 90.3548 39.6145 89.6751 39.6145C88.9954 39.6145 88.6352 39.3878 88.3427 39.2048C88.1126 39.0605 87.9609 38.9652 87.6089 38.9652C87.2568 38.9652 87.1025 39.0605 86.8723 39.2048C86.5825 39.3878 86.2197 39.6145 85.54 39.6145C84.8602 39.6145 84.4974 39.3878 84.2076 39.2048C83.9774 39.0605 83.8258 38.9652 83.471 38.9652C83.1163 38.9652 82.9646 39.0605 82.7344 39.2048C82.4447 39.3878 82.0818 39.6145 81.4021 39.6145C80.7224 39.6145 80.3595 39.3878 80.0698 39.2048C79.8396 39.0605 79.6879 38.9652 79.3332 38.9652C79.0353 38.9652 78.7916 38.7333 78.7916 38.4499C78.7916 38.1664 79.0353 37.9345 79.3332 37.9345C80.0129 37.9345 80.3758 38.1613 80.6655 38.3442C80.8957 38.4885 81.0474 38.5838 81.4021 38.5838C81.7569 38.5838 81.9085 38.4885 82.1387 38.3442C82.4284 38.1613 82.7913 37.9345 83.471 37.9345C84.1507 37.9345 84.5136 38.1613 84.8034 38.3442C85.0336 38.4885 85.1852 38.5838 85.54 38.5838C85.8947 38.5838 86.0464 38.4885 86.2765 38.3442C86.5663 38.1613 86.9292 37.9345 87.6089 37.9345C88.2886 37.9345 88.6488 38.1613 88.9412 38.3442C89.1714 38.4885 89.3231 38.5838 89.6751 38.5838C90.0271 38.5838 90.1815 38.4885 90.409 38.3442C90.6987 38.1613 91.0616 37.9345 91.7413 37.9345C92.421 37.9345 92.7839 38.1613 93.0737 38.3442C93.3038 38.4885 93.4555 38.5838 93.8102 38.5838C94.165 38.5838 94.3166 38.4885 94.5468 38.3442C94.8366 38.1613 95.1994 37.9345 95.8792 37.9345C96.5589 37.9345 96.9217 38.1613 97.2115 38.3442C97.4417 38.4885 97.5933 38.5838 97.9481 38.5838C98.3028 38.5838 98.4545 38.4885 98.6847 38.3442C98.9744 38.1613 99.3373 37.9345 100.017 37.9345C100.697 37.9345 101.06 38.1613 101.349 38.3442C101.58 38.4885 101.731 38.5838 102.083 38.5838C102.435 38.5838 102.59 38.4885 102.82 38.3442C103.11 38.1613 103.472 37.9345 104.152 37.9345C104.832 37.9345 105.195 38.1613 105.487 38.3442C105.717 38.4885 105.869 38.5838 106.224 38.5838C106.579 38.5838 106.73 38.4885 106.96 38.3442C107.253 38.1613 107.613 37.9345 108.293 37.9345C108.591 37.9345 108.834 38.1664 108.834 38.4499H108.832Z" fill="black"/>
</g>
<defs>
<clipPath id="clip0_392_188">
<rect width="16.2814" height="32.0453" fill="white" transform="translate(4.94141 90.2917)"/>
</clipPath>
<clipPath id="clip1_392_188">
<rect width="16.2814" height="32.0453" fill="white" transform="translate(122.787 90.2917)"/>
</clipPath>
<clipPath id="clip2_392_188">
<rect width="73.2712" height="37.6439" fill="white" transform="translate(57.1016)"/>
</clipPath>
</defs>
</svg>
